<?xml version="1.0" encoding="UTF-8" standalone="no"?>
<!DOCTYPE svg PUBLIC "-//W3C//DTD SVG 1.1//EN" "http://www.w3.org/Graphics/SVG/1.1/DTD/svg11.dtd">
<svg width="100%" height="100%" viewBox="0 0 1080 1080" version="1.1" xmlns="http://www.w3.org/2000/svg" xmlns:xlink="http://www.w3.org/1999/xlink" xml:space="preserve" xmlns:serif="http://www.serif.com/" style="fill-rule:evenodd;clip-rule:evenodd;stroke-linecap:round;stroke-linejoin:round;stroke-miterlimit:1.5;">
    <path d="M98.477,530.261L962.044,538.918L946.665,672.197L875.471,809.459L753.297,920.241L568.136,965.291L293.267,900.361L143.928,718.557L98.477,530.261Z" style="fill:white;"/>
    <path d="M96.313,532.425L966.373,538.918L920.922,335.471L795.391,190.461L617.916,112.545L442.605,110.381L271.623,199.118L133.106,357.114L96.313,532.425Z" style="fill:rgb(255,0,0);"/>
    <path d="M375.511,928.497C375.511,928.497 691.254,961.202 827.856,768.337C941.889,607.336 955.551,478.317 955.551,478.317L979.359,560.561L953.387,625.491L879.8,796.473L723.968,924.168L594.776,968.604L427.455,960.962L375.511,928.497Z" style="fill:rgb(64,64,64);fill-opacity:0.55;"/>
    <g transform="matrix(1,0,0,1,-41.1222,-58.4369)">
        <path d="M156.914,469.659C156.914,469.659 265.13,292.545 319.238,248.898C371.166,207.009 585.451,157.996 585.451,157.996L714.843,184.609C714.843,184.609 478.097,200.675 364.689,309.499C198.596,468.878 178.557,606.012 178.557,606.012L137.724,596.704L156.914,469.659Z" style="fill:rgb(255,202,0);fill-opacity:0.32;"/>
    </g>
    <g transform="matrix(1.02941,0,0,0.99338,-31.4767,-8.25)">
        <ellipse cx="555.15" cy="551.904" rx="417.715" ry="432.866" style="fill:none;stroke:black;stroke-width:46.02px;"/>
    </g>
    <g transform="matrix(0.928718,0,0,1,40.5025,15.1503)">
        <path d="M107.134,525.932L968.537,523.768" style="fill:none;stroke:black;stroke-width:48.24px;"/>
    </g>
    <g transform="matrix(0.887111,0,0,0.866319,63.84,69.375)">
        <ellipse cx="536.754" cy="543.246" rx="135.271" ry="138.517" style="fill:white;stroke:black;stroke-width:53.09px;"/>
    </g>
</svg>
